<svg version="1.1" id="Layer_1" xmlns="http://www.w3.org/2000/svg" xmlns:xlink="http://www.w3.org/1999/xlink" x="0px" y="0px"
	 width="100%" viewBox="0 0 912 608" enable-background="new 0 0 912 608" xml:space="preserve">
<path fill="#000000" opacity="1.000000" stroke="none" 
	d="
M293.946106,395.953247 
	C281.268768,401.508820 270.771149,409.765778 260.010681,417.621246 
	C257.729553,419.286499 255.058151,422.852997 252.431351,419.993286 
	C249.710800,417.031525 253.503922,414.626984 255.549316,412.771973 
	C275.133301,395.011078 297.907043,382.915558 323.204926,375.602051 
	C333.897552,372.510834 344.800903,370.145355 355.620087,367.497406 
	C358.805267,366.717865 361.545868,365.262817 363.573914,362.664124 
	C376.983795,345.480743 392.389069,329.826447 403.860352,311.171082 
	C411.786530,298.281036 419.802429,285.251801 422.735443,270.108368 
	C424.341034,261.818756 425.087921,253.325958 423.814270,244.822159 
	C423.563141,243.145279 423.032196,241.631683 422.326965,240.099350 
	C414.364014,222.797119 398.628143,210.899826 390.544037,192.999878 
	C374.296265,205.784515 359.345764,218.493668 351.357117,237.543121 
	C347.745667,246.154877 343.059631,254.217239 336.675751,261.179932 
	C334.058807,264.034149 332.099579,264.192383 330.469574,260.271454 
	C325.850128,249.159592 317.483398,241.541565 307.277222,235.678864 
	C301.499146,232.359787 301.192017,230.504471 306.543671,226.297089 
	C312.475494,221.633591 317.717804,216.384659 322.516388,210.582489 
	C326.508484,205.755478 331.974701,202.605423 337.403137,199.795074 
	C352.720825,191.864975 359.843292,178.469849 364.110321,162.583328 
	C366.487030,153.734756 368.483551,144.812592 370.293213,135.865631 
	C371.242859,131.170517 373.704468,128.975662 377.835632,127.699364 
	C384.350250,125.686707 390.852936,123.632233 397.330444,121.503464 
	C405.280609,118.890739 412.722046,115.209969 419.823486,110.777542 
	C422.123779,109.341782 424.368683,107.484665 427.735931,108.130142 
	C420.610962,116.623047 410.874329,121.324753 400.677521,125.902672 
	C407.679138,138.603714 414.408600,150.585510 428.821899,155.926575 
	C436.583954,158.802917 443.837952,163.051682 451.317230,166.689346 
	C458.081482,169.979248 463.418304,174.801132 467.135529,181.383682 
	C467.516083,182.057632 468.168732,182.577927 469.101044,183.625732 
	C474.987762,173.933273 480.324646,164.519958 483.831512,154.082092 
	C486.281738,146.789215 487.431671,139.199112 489.641083,131.879913 
	C490.428040,129.272949 489.200714,128.143387 487.527985,126.963539 
	C483.422028,124.067459 479.770844,120.673927 476.472443,116.903236 
	C474.986847,115.204948 473.436676,113.481438 473.172058,110.727859 
	C476.157806,110.558037 477.216278,112.725945 478.721069,114.047447 
	C485.674377,120.153862 493.011200,125.815224 502.446045,127.067612 
	C513.170898,128.491241 516.687195,137.095245 520.025391,144.917664 
	C525.568909,157.908020 529.449768,171.608734 536.221436,184.106827 
	C539.155579,189.522293 542.254517,194.854263 545.446411,200.122513 
	C547.984985,204.312500 552.367859,206.278641 556.472778,208.452515 
	C567.711426,214.404175 578.453918,221.024826 587.091553,230.555557 
	C592.698486,236.742233 592.362732,237.826065 585.808411,242.886993 
	C576.529541,250.051697 568.250183,258.221375 562.378113,268.556274 
	C559.321167,273.936432 557.834229,273.903778 554.787170,268.383667 
	C553.666504,266.353455 552.542725,264.239441 551.941101,262.022308 
	C548.086060,247.816818 539.951721,235.746735 532.376648,223.487411 
	C528.655396,217.465118 523.338501,212.423828 518.693054,206.981766 
	C517.742065,205.867676 516.392212,205.028336 517.166504,201.937531 
	C539.085083,215.922882 548.117126,238.303833 558.838257,260.235229 
	C567.242981,252.595154 573.693604,243.443359 582.982422,236.578705 
	C576.667053,229.232559 570.294983,222.890701 561.870361,219.355408 
	C548.371887,213.690948 539.503540,204.053360 533.406799,190.792038 
	C527.135742,177.151489 521.333191,163.389038 516.978088,149.051254 
	C513.685486,138.211273 506.365387,133.166290 494.948029,132.882675 
	C493.455780,134.142807 493.583038,136.488220 493.489594,138.509857 
	C492.694000,155.729065 486.273926,170.949646 476.468323,184.720245 
	C472.605408,190.145203 471.740204,195.799438 472.127014,201.778564 
	C470.352142,202.499329 469.823303,201.576324 469.374023,200.680725 
	C462.573425,187.124710 451.659058,178.186600 437.972198,172.125031 
	C420.406799,164.345718 407.585785,151.475586 398.540619,134.629227 
	C394.471893,127.051399 394.039825,127.030373 386.153839,130.401443 
	C385.082855,130.859268 383.994781,131.282852 382.895416,131.667404 
	C377.936768,133.401901 375.394348,136.147797 374.954254,142.113968 
	C373.995361,155.112381 369.609802,167.472549 365.111969,179.637985 
	C361.704224,188.855133 353.223724,193.778671 346.185242,199.802185 
	C343.166412,202.385696 339.854828,204.784927 336.327789,206.585281 
	C327.915009,210.879593 323.920593,219.440399 317.372833,225.505981 
	C315.826172,226.938736 316.253937,228.593323 317.792511,229.802826 
	C325.058655,235.514847 331.070374,242.321259 335.290863,250.325211 
	C338.375793,250.126633 338.913849,247.961655 339.791626,246.276901 
	C342.637329,240.815170 345.397125,235.308334 348.157349,229.802490 
	C355.234650,215.685211 370.721252,196.654785 389.058228,190.781830 
	C386.844604,185.474228 384.372223,180.294586 382.523163,174.901276 
	C380.691803,169.559479 376.906738,164.725143 377.410248,158.380066 
	C380.841461,158.230209 381.803345,160.674332 382.791931,162.543472 
	C392.550690,180.994995 404.166229,198.247116 416.277008,215.203751 
	C422.325989,223.673080 425.311066,233.703506 429.575012,243.066406 
	C432.459991,249.401367 430.630615,256.290802 429.930206,262.827942 
	C427.919769,281.592438 421.986603,299.376282 412.801971,315.673615 
	C404.539368,330.334961 392.886230,342.714325 381.590790,355.194794 
	C378.573181,358.528931 375.292755,361.695831 372.732483,365.358521 
	C367.395294,372.993958 359.783539,376.250244 351.117401,378.460938 
	C331.918396,383.358551 312.998474,389.244507 293.946106,395.953247 
z"/>
<path fill="#000000" opacity="1.000000" stroke="none" 
	d="
M539.049622,477.059662 
	C543.539001,462.341522 547.451843,447.903259 549.151550,432.951813 
	C550.359680,422.325104 549.728027,411.653290 550.083496,401.006683 
	C550.658752,383.779694 546.168823,367.557983 538.010559,352.790344 
	C530.708984,339.573456 521.581238,327.342651 512.540955,315.166412 
	C510.390808,312.270447 508.476471,309.199432 506.090332,306.349335 
	C507.717865,316.342255 509.724060,326.194061 510.900970,336.176514 
	C512.653442,351.040802 515.080811,365.855042 515.160583,380.863129 
	C515.298340,406.773865 508.921295,430.803009 494.721741,452.757294 
	C486.990784,464.710388 479.498535,476.851105 467.215210,484.593292 
	C453.861298,493.010376 440.622437,501.725616 425.988403,507.919769 
	C425.681580,508.049683 425.325287,508.108704 425.067383,508.301575 
	C414.607880,516.122681 404.692322,513.789795 393.528748,508.635406 
	C376.332642,500.695618 358.200195,494.812073 341.158539,486.382141 
	C336.955566,484.303040 332.453705,483.063934 327.660675,483.190857 
	C326.380920,483.224731 324.942780,483.341370 323.925201,481.634827 
	C324.948578,478.753357 327.719788,479.081116 330.007233,478.824707 
	C339.179657,477.796814 347.205872,482.117218 355.627197,484.537964 
	C372.702759,489.446533 388.136566,498.189270 404.111603,505.642120 
	C408.663879,507.765900 412.510010,507.477448 416.865326,505.288574 
	C430.960083,498.205078 442.905701,488.070343 455.634674,478.988342 
	C476.428467,464.152191 486.636627,442.734589 495.160828,419.920166 
	C499.956177,407.085602 504.549194,394.147888 504.540802,380.292389 
	C504.526978,357.468994 502.859741,334.784241 498.309875,312.316132 
	C493.927704,290.676086 486.778107,269.509888 485.564392,247.348328 
	C485.084534,238.586319 480.993805,235.479370 473.545868,234.064224 
	C469.211365,233.240646 464.956360,231.998871 460.418457,230.884583 
	C461.611328,227.451981 464.041931,227.865173 466.011688,227.798965 
	C473.503113,227.547256 481.025177,227.297089 488.401947,228.960648 
	C492.045197,229.782242 493.810913,228.304916 495.351593,225.126053 
	C504.439056,206.376160 510.931091,186.955368 511.467102,165.894424 
	C511.514709,164.025269 511.512390,161.903305 513.940979,161.700485 
	C516.071045,161.522598 516.463989,163.591400 516.989075,165.117813 
	C518.494507,169.493805 518.152283,174.000931 517.649719,178.481354 
	C516.852173,185.592224 515.969116,192.693573 515.107605,199.797180 
	C514.721680,202.979568 513.567078,205.942719 512.181274,208.780151 
	C507.505646,218.353149 502.831055,227.922867 495.808075,236.112610 
	C491.710571,240.890884 493.013336,246.860794 492.948792,252.368881 
	C492.826935,262.765961 497.465302,271.977264 500.646332,281.605560 
	C506.086304,298.071289 517.900085,310.287231 527.314941,324.133820 
	C532.389099,331.596527 538.093811,338.502594 543.772583,345.471344 
	C551.973511,355.535217 555.536011,367.564606 558.677063,379.949615 
	C565.394592,406.435944 562.238098,432.380157 556.235657,458.449280 
	C551.068848,480.888519 542.425598,501.839783 531.243774,521.837891 
	C529.899414,524.242249 529.632507,526.374634 530.830627,528.893066 
	C532.023438,531.400513 533.000183,534.050781 532.442505,536.860352 
	C530.918213,537.432190 530.298401,536.612000 529.897766,535.677063 
	C526.906799,528.697754 521.145020,525.006226 514.364990,522.526611 
	C503.109711,518.410339 491.842651,514.326294 480.588043,510.208191 
	C478.350861,509.389618 476.044464,509.256012 473.699280,509.250977 
	C461.535431,509.224823 449.371582,509.190094 437.207916,509.122833 
	C435.619720,509.114075 433.828247,509.644653 432.522797,507.721405 
	C433.600769,504.745544 436.489929,504.465240 438.929230,503.989960 
	C453.139191,501.221405 467.626190,500.842316 481.650787,503.677460 
	C493.774933,506.128357 505.716370,510.200684 516.764099,516.296753 
	C522.727661,519.587341 523.132019,519.243164 525.668335,512.994019 
	C530.427368,501.268463 535.288025,489.582306 539.049622,477.059662 
z"/>
<path fill="#000000" opacity="1.000000" stroke="none" 
	d="
M479.124725,342.743652 
	C476.426300,353.307190 475.181122,363.844727 470.912018,373.502289 
	C462.839966,391.762787 451.661957,407.931732 437.341919,421.876282 
	C418.007660,440.703613 394.216675,451.525146 369.046570,459.918732 
	C351.032104,465.926086 333.282776,472.613251 316.417297,481.455963 
	C314.550079,482.434937 312.108093,483.780487 310.712555,481.166046 
	C309.415405,478.735962 312.042877,477.674469 313.559113,476.632629 
	C317.393127,473.998169 321.258881,471.355225 325.358185,469.179688 
	C328.398010,467.566467 328.351990,466.101532 326.874329,463.299316 
	C321.439636,452.992859 312.937347,445.084869 306.016296,435.950226 
	C299.927856,427.914368 296.518585,417.966766 287.631439,411.716736 
	C290.523315,409.095276 292.334900,410.765656 294.007599,411.811249 
	C300.870392,416.101166 306.643311,421.534180 311.058228,428.375702 
	C318.717285,440.244354 325.409790,452.666107 332.391083,465.486023 
	C355.042084,453.908051 380.529938,449.127869 402.649597,436.135590 
	C415.037659,428.859283 424.631592,418.504852 434.034180,407.893188 
	C446.607056,393.703491 454.271301,377.046509 461.235138,359.524689 
	C466.812286,345.491974 468.729889,331.053345 471.663239,316.633179 
	C475.553467,297.509247 476.303528,278.011810 478.753784,258.717957 
	C479.021759,256.607788 478.819489,254.276611 481.703430,253.357773 
	C484.276184,255.040588 483.519714,257.717682 483.419006,260.045349 
	C482.232513,287.478973 481.894135,314.957214 479.124725,342.743652 
z"/>
<path fill="#000000" opacity="1.000000" stroke="none" 
	d="
M425.069366,318.153320 
	C431.807587,299.821777 437.946228,281.755920 438.945160,262.377838 
	C439.118378,259.017517 439.433533,255.438522 442.069458,252.227554 
	C444.768982,254.363297 443.855438,257.098755 443.952576,259.556915 
	C444.660980,277.483002 439.585083,294.359802 434.807220,311.335358 
	C428.412292,334.056213 417.006927,354.209351 403.510956,373.276062 
	C397.836365,381.292999 390.351837,387.185577 380.818024,390.468933 
	C369.645386,394.316742 359.105835,399.703156 348.457397,404.794586 
	C345.896454,406.019043 343.318512,407.338196 340.395691,407.167572 
	C327.611145,406.421265 314.828003,405.640961 302.053772,404.739594 
	C300.494415,404.629547 298.707123,404.629089 297.135315,403.157074 
	C298.458008,401.046112 300.691040,400.957092 302.710999,400.687866 
	C313.982574,399.185486 325.314941,399.628052 336.622009,399.967102 
	C341.621826,400.117035 345.999359,399.062042 350.437897,396.697021 
	C357.177826,393.105743 364.052277,389.517578 371.265991,387.121643 
	C382.937988,383.244873 390.814636,375.041351 398.471252,366.148041 
	C410.593079,352.068359 419.232361,336.128357 425.069366,318.153320 
z"/>
</svg>