<svg version="1.1" id="Layer_1" xmlns="http://www.w3.org/2000/svg" xmlns:xlink="http://www.w3.org/1999/xlink" x="0px" y="0px"
	 width="100%" viewBox="0 0 784 1024" enable-background="new 0 0 784 1024" xml:space="preserve">
<path fill="#000000" opacity="1.000000" stroke="none" 
	d="
M518.578796,99.411682 
	C514.910583,95.507057 511.395966,91.913116 509.179138,87.352608 
	C508.274323,85.491264 506.520142,83.137932 508.751160,81.498123 
	C510.663330,80.092682 512.987854,81.552193 514.651733,82.939850 
	C518.872131,86.459488 522.969177,90.128334 527.084412,93.772614 
	C540.721191,105.848755 556.121277,114.116516 574.382507,116.960442 
	C588.312561,119.129845 596.897949,128.597839 602.932556,140.488586 
	C611.085388,156.553192 617.418213,173.413239 623.384399,190.384293 
	C633.938477,220.405624 648.400757,248.461243 665.299072,275.343811 
	C670.077942,282.946411 677.617126,286.867065 685.128418,290.811829 
	C709.412781,303.565521 732.743286,317.668091 752.029785,337.547485 
	C754.922424,340.529053 757.653503,343.706177 760.148438,347.026428 
	C764.904785,353.356049 764.478455,357.719147 758.380554,363.084839 
	C753.258789,367.591614 747.793518,371.706696 742.506531,376.027283 
	C725.965759,389.544891 712.106995,405.349396 701.296204,423.837616 
	C694.647400,435.208252 690.977173,435.074188 684.305542,423.656311 
	C681.180786,418.308624 678.810547,412.655060 677.050293,406.710175 
	C669.830078,382.325287 656.789490,360.820923 643.987305,339.127594 
	C633.133728,320.736206 619.092590,304.984741 605.057800,289.155426 
	C602.620850,286.406921 601.047119,283.474731 602.678223,279.633942 
	C605.255127,279.187531 606.771545,281.003906 608.465271,282.142059 
	C629.930542,296.566345 645.797180,316.104797 659.233521,337.860687 
	C670.639832,356.329407 679.693787,376.015198 689.172668,395.483307 
	C690.461670,398.130859 691.231140,401.113251 693.893860,403.318146 
	C698.914001,399.653259 703.074036,395.139862 707.230957,390.658722 
	C718.215515,378.817322 728.571411,366.346619 741.534729,356.504517 
	C743.807007,354.779327 743.868225,353.218384 742.084961,351.131256 
	C730.516907,337.591919 717.884460,325.357056 701.205872,318.204529 
	C671.434753,305.437317 650.618530,283.820587 637.382874,254.457748 
	C623.888428,224.520660 611.369263,194.218857 601.497803,162.865356 
	C595.386230,143.454300 581.839355,132.989746 561.877075,130.479050 
	C554.775879,129.585938 552.528442,131.315689 552.374390,138.275497 
	C551.558777,175.139465 538.776794,207.927505 518.140137,237.903137 
	C510.432220,249.099213 505.411255,260.827850 506.222534,274.648407 
	C506.333313,276.536011 506.729645,278.860626 503.888245,279.426483 
	C501.186096,279.964630 499.958557,278.163239 498.886200,276.191833 
	C493.133728,265.616180 486.481689,255.708176 478.218964,246.870193 
	C466.890686,234.753387 453.403015,225.640762 438.615173,218.506607 
	C422.826996,210.889832 407.329132,202.779175 393.304199,192.261490 
	C380.985107,183.023041 370.612518,171.711121 361.407196,159.347397 
	C354.224426,149.700241 348.116699,139.391739 342.334808,128.872513 
	C337.119568,119.384178 334.176178,118.346916 324.235260,122.393806 
	C320.841736,123.775291 317.516418,125.409668 314.013580,126.422134 
	C301.570984,130.018600 295.154633,138.230148 294.467316,151.077179 
	C293.370270,171.583160 286.470520,190.744629 281.216614,210.347092 
	C274.261749,236.295807 259.224976,255.662872 237.593323,270.963104 
	C227.133759,278.361237 217.184464,286.441925 206.030106,292.873138 
	C195.811188,298.765015 189.404892,308.578857 181.946564,317.283783 
	C178.695343,321.078430 175.507339,324.934021 172.115158,328.599548 
	C167.077789,334.042847 167.065552,335.795959 173.013535,340.578979 
	C180.578369,346.662109 187.335281,353.538025 193.640472,360.887421 
	C198.429001,366.468964 202.540466,372.521393 206.315353,378.823730 
	C209.265778,383.749664 211.969406,384.004303 215.057999,379.117615 
	C218.250336,374.066772 220.870377,368.635712 223.512634,363.258911 
	C234.103714,341.706696 244.780365,320.203308 260.491150,301.746246 
	C277.086456,282.250061 295.685303,265.294922 320.121399,256.040955 
	C323.259827,254.852463 323.697174,253.426453 322.431854,250.459991 
	C315.964386,235.297699 309.705322,220.046677 303.279907,204.866241 
	C301.186829,199.921371 299.672913,194.846146 299.037109,189.527725 
	C298.825623,187.758896 298.349609,185.639786 300.266876,184.529770 
	C302.037659,183.504593 303.827026,184.571686 305.456635,185.369247 
	C307.823700,186.527710 309.182495,188.684448 310.345642,190.899689 
	C332.401398,232.904938 359.431732,271.739716 386.300995,310.698883 
	C392.310699,319.412659 397.891479,328.533478 401.733368,338.571320 
	C404.708160,346.343689 407.727081,354.146698 411.445374,361.576263 
	C417.709198,374.092072 417.952728,387.060852 416.278168,400.543335 
	C413.174866,425.529083 409.379333,450.391785 400.600555,474.084045 
	C388.097443,507.827637 371.809387,539.540283 348.519592,567.348145 
	C335.146881,583.315002 321.402496,598.941040 307.283020,614.242004 
	C301.181610,620.854004 295.005890,627.389526 289.711121,634.694702 
	C279.440430,648.865051 265.128021,657.003113 248.571198,661.252197 
	C205.800415,672.228638 163.647232,685.238831 121.983780,699.786133 
	C106.511230,705.188721 92.712357,714.164124 79.294891,723.530029 
	C66.320839,732.586548 53.260578,741.525024 40.939415,751.489685 
	C38.577499,753.399841 36.093956,755.846558 32.476658,754.864929 
	C26.326382,753.196045 24.656013,746.750488 29.392031,741.865906 
	C36.476006,734.559875 44.478168,728.245667 52.386524,721.874268 
	C100.369408,683.216553 155.727402,660.521667 215.243484,646.865356 
	C226.919067,644.186279 238.569046,641.394531 250.218262,638.602173 
	C258.759033,636.554810 265.842499,632.258484 271.295013,625.221680 
	C291.400146,599.274841 313.782013,575.174500 333.531464,548.948486 
	C355.954987,519.171448 375.054138,487.362122 389.549774,452.968353 
	C398.779510,431.069000 402.304199,408.008942 401.680084,384.267517 
	C401.346375,371.573822 397.095886,360.480042 390.208710,349.815063 
	C379.327240,332.964813 366.698456,317.485687 354.477234,301.673218 
	C345.195312,289.663757 336.114380,277.534149 329.569031,263.730591 
	C329.223816,263.002533 328.647186,262.384247 328.010559,261.475372 
	C323.280884,263.235321 320.092346,266.965759 316.390686,269.894135 
	C295.543793,286.386017 276.219208,304.394562 260.575500,326.079834 
	C251.828033,338.205566 245.887817,351.792786 239.720795,365.269897 
	C232.592880,380.846893 223.151703,394.903961 211.835541,407.708557 
	C205.812073,414.524353 201.337173,414.109833 197.637924,405.679260 
	C187.418655,382.389557 170.093781,365.976410 148.576279,353.393463 
	C147.138702,352.552765 145.724274,351.666656 144.343155,350.736267 
	C135.759033,344.953705 135.546646,340.221558 143.376175,333.488464 
	C154.869522,323.604584 166.546356,313.899750 176.211960,302.104828 
	C180.978378,296.288391 186.019089,290.784912 192.135300,286.313232 
	C197.667709,282.268372 203.420197,278.576691 209.557510,275.568542 
	C239.864395,260.713745 257.403656,235.584915 267.032288,204.162491 
	C273.812439,182.035995 278.900726,159.463409 283.453522,136.800583 
	C285.547180,126.378761 291.366119,120.417938 301.079163,117.258789 
	C317.229919,112.005798 333.628754,107.523041 349.565338,101.605293 
	C363.198761,96.542778 376.222565,90.271881 388.530884,82.491013 
	C392.178894,80.184868 396.066559,78.221413 399.973511,76.373909 
	C402.639130,75.113396 405.508881,74.027260 409.488953,76.155617 
	C393.627350,94.700188 372.291229,104.286980 351.005554,114.662628 
	C362.470917,135.239685 373.408295,155.336716 392.597015,168.995972 
	C397.825928,172.718094 403.904541,175.409653 409.875519,177.896255 
	C429.585938,186.104553 448.759033,195.388260 467.363861,205.841232 
	C478.347229,212.012146 486.823273,220.822525 493.593079,231.383133 
	C494.985687,233.555527 495.958527,236.194626 498.561890,237.319733 
	C500.196411,236.892242 500.514618,235.464264 501.200165,234.372681 
	C519.618347,205.045517 533.039734,173.694107 539.694214,139.582718 
	C540.553223,135.179657 541.849365,130.863556 542.796021,126.475464 
	C543.614136,122.683380 542.380859,119.730980 539.095520,117.427460 
	C531.706360,112.246513 525.085144,106.153946 518.578796,99.411682 
z"/>
<path fill="#000000" opacity="1.000000" stroke="none" 
	d="
M555.224854,959.860107 
	C545.936279,956.486877 536.935791,953.447327 528.097778,949.992065 
	C521.145447,947.274109 514.063416,946.198364 506.631073,946.224060 
	C481.466644,946.311157 456.301514,946.186218 431.136627,946.141724 
	C429.970062,946.139648 428.797699,946.205627 427.638031,946.113647 
	C424.512146,945.865479 420.406891,946.087891 420.099731,942.114014 
	C419.822876,938.532593 423.074219,936.269226 426.490265,935.398254 
	C434.882629,933.258545 443.427216,931.913879 452.019562,930.797913 
	C502.012329,924.304871 549.050659,934.422913 594.059875,955.963623 
	C598.413574,958.047241 602.549377,960.583191 606.882812,962.712830 
	C613.545532,965.987183 615.971375,965.162964 618.817444,958.236450 
	C624.703735,943.910889 630.531189,929.557251 636.106201,915.108459 
	C649.916382,879.316467 660.578186,842.591125 668.104919,804.971375 
	C672.003479,785.486084 673.094849,765.707581 673.557251,745.906250 
	C673.887878,731.747314 673.789001,717.576416 673.756104,703.411194 
	C673.673950,668.079834 663.658875,635.423218 646.424866,604.902588 
	C631.076538,577.721313 612.873108,552.424927 594.067200,527.551819 
	C589.584595,521.622925 585.555542,515.351013 580.568237,508.155365 
	C581.282288,519.396912 583.761169,528.988708 585.295105,538.721375 
	C588.868164,561.391113 591.784607,584.145142 594.549316,606.929871 
	C597.037903,627.439697 599.145142,647.954041 599.244202,668.611328 
	C599.533081,728.853271 582.556641,783.804932 548.489319,833.527039 
	C539.449341,846.721130 530.715027,860.083801 519.910278,871.987183 
	C506.229401,887.059204 488.776031,896.914551 471.840424,907.486084 
	C450.212128,920.986816 428.105835,933.585449 404.810577,944.120056 
	C396.957977,947.671082 389.657654,952.412537 381.082916,954.269043 
	C367.544006,957.200439 354.712860,953.777710 342.690979,948.395386 
	C307.099823,932.460999 270.448578,919.098572 234.809952,903.303589 
	C224.487396,898.728577 214.710709,892.807434 203.332123,890.822266 
	C199.345032,890.126709 195.362228,890.335938 191.380890,890.078857 
	C188.150406,889.870239 184.267990,889.506836 184.095779,885.593628 
	C183.935547,881.952576 187.524887,880.447693 190.732819,879.936829 
	C198.824875,878.648071 206.880463,878.663269 215.047592,880.132263 
	C226.450882,882.183411 236.991104,886.868958 248.015823,890.047363 
	C280.364502,899.373657 310.345245,914.337524 340.390747,929.132751 
	C345.023438,931.414124 349.838562,933.357361 354.337463,935.871765 
	C365.598511,942.165405 376.270630,941.051880 387.563171,935.274048 
	C407.556458,925.044617 425.740967,912.188843 443.527130,898.685852 
	C457.986237,887.708679 473.275330,877.793762 486.727997,865.523132 
	C510.295929,844.025940 526.950867,817.608215 539.762878,788.760376 
	C550.912842,763.654968 561.000549,738.089783 568.384460,711.547913 
	C573.010254,694.920105 575.074951,678.033020 575.058105,660.762085 
	C575.030090,632.082886 573.658386,603.456482 570.448486,575.003540 
	C567.205688,546.258850 562.235962,517.743774 555.247803,489.601654 
	C548.955017,464.260071 542.596863,438.920868 538.114502,413.164185 
	C535.886230,400.360443 535.192810,387.391815 533.757751,374.504822 
	C532.419067,362.483398 526.841736,354.154938 514.868958,350.932281 
	C505.070801,348.294952 495.190002,345.966003 485.363281,343.432709 
	C483.547485,342.964539 480.743622,343.237030 480.655060,340.683716 
	C480.559387,337.926025 482.811493,335.972931 485.313721,335.471558 
	C489.366821,334.659485 493.543610,334.249786 497.682373,334.119232 
	C512.017761,333.667145 526.310303,334.080505 540.444824,336.909760 
	C547.604187,338.342804 550.394653,337.234131 554.043518,330.855865 
	C560.429565,319.693115 565.100220,307.728912 569.713623,295.764313 
	C577.517944,275.524353 583.725891,254.811905 587.148315,233.356583 
	C588.324890,225.980148 589.528503,218.578629 589.704590,211.069321 
	C589.802246,206.905838 589.913330,202.735031 590.256531,198.587234 
	C590.546753,195.079117 591.687134,191.877808 595.842773,191.391190 
	C600.201904,190.880737 601.487427,194.222153 602.603149,197.417572 
	C605.457581,205.591995 606.031494,214.114151 605.141541,222.590149 
	C603.283630,240.285751 600.937317,257.929871 598.823914,275.598969 
	C597.419434,287.341736 591.197998,297.182007 586.143799,307.444702 
	C578.180359,323.614990 569.208435,339.189178 557.577148,353.093231 
	C553.263306,358.249939 551.705017,364.278198 551.083740,371.028534 
	C548.618713,397.811310 557.139709,422.217010 565.988953,446.762939 
	C573.816162,468.474243 585.100220,488.086121 598.604980,506.654205 
	C614.862915,529.007690 630.377136,551.902954 647.590210,573.558044 
	C656.600891,584.894104 666.304382,595.731201 673.216309,608.596802 
	C685.089294,630.696777 691.329529,654.656067 696.318298,679.015320 
	C704.843323,720.641907 701.800537,762.073914 694.693604,803.546631 
	C687.397827,846.121704 675.081909,887.112000 657.505859,926.529663 
	C650.789673,941.591858 643.622131,956.452454 635.316284,970.719482 
	C631.494568,977.284180 630.819763,983.796814 634.382996,990.659729 
	C636.093689,993.954590 636.615784,997.640198 636.972595,1001.267639 
	C637.159424,1003.165955 637.004272,1005.543335 634.490479,1006.109924 
	C632.355469,1006.591248 631.050781,1005.078796 630.256775,1003.324585 
	C623.092529,987.495850 609.637024,979.512939 594.078308,974.011902 
	C581.206055,969.460632 568.411743,964.688782 555.224854,959.860107 
z"/>
<path fill="#000000" opacity="1.000000" stroke="none" 
	d="
M486.027527,608.095947 
	C493.974182,584.105103 497.743500,559.568787 502.651398,535.287048 
	C508.094025,508.359650 511.327759,481.146637 513.846008,453.815155 
	C515.554199,435.275757 517.764038,416.782562 519.749023,398.268677 
	C519.766724,398.102997 519.759644,397.932465 519.795898,397.771301 
	C520.596436,394.208588 521.918640,390.183044 526.036011,390.565247 
	C530.043823,390.937225 531.138794,395.183502 531.003296,398.726532 
	C530.329163,416.354614 529.430237,433.974518 528.536926,451.593597 
	C528.073120,460.740936 528.081055,469.895752 527.544556,479.052094 
	C526.404907,498.500580 526.037170,517.993103 525.228210,537.462402 
	C523.778381,572.355225 518.661194,606.724365 507.821503,639.935547 
	C499.603027,665.115784 486.176727,687.860657 470.914886,709.430420 
	C452.327118,735.700623 430.750519,759.282654 404.986694,778.649658 
	C381.048737,796.644226 354.656097,810.503418 327.177399,822.330444 
	C304.353729,832.153992 280.646576,839.538391 257.282043,847.870483 
	C226.660416,858.790588 196.610519,871.058411 167.675018,885.949585 
	C165.758759,886.935791 163.880554,888.023743 161.656830,888.282166 
	C158.462982,888.653564 156.175339,887.521545 154.729752,884.586914 
	C153.249512,881.581848 154.436447,879.277405 156.799927,877.649414 
	C163.930588,872.738220 171.163605,867.973816 178.406845,863.228699 
	C181.331146,861.312988 184.355698,859.543884 187.388046,857.801025 
	C191.644226,855.354919 192.479965,852.164490 190.248215,847.749146 
	C184.569931,836.515198 177.356369,826.317078 169.162430,816.856384 
	C153.317764,798.562317 138.236404,779.767761 126.347443,758.552124 
	C121.681679,750.226196 115.414360,743.043579 107.777817,737.162842 
	C106.887756,736.477417 106.197647,735.532349 105.261948,734.546509 
	C108.428200,730.290466 112.249191,730.040039 116.285202,732.306763 
	C123.570450,736.398499 130.221161,741.409546 136.448547,746.987549 
	C151.736862,760.681396 161.818237,778.213928 171.960876,795.626282 
	C181.602386,812.178406 190.719620,829.036621 200.002716,845.796082 
	C201.408798,848.334595 202.443420,850.200989 206.028870,848.431763 
	C233.736465,834.759277 263.145905,825.396118 292.045227,814.740967 
	C318.043610,805.155334 343.706970,794.795227 366.404175,778.523132 
	C385.421082,764.889648 401.960693,748.557922 417.742798,731.273193 
	C445.305023,701.086670 463.569855,665.612122 478.551971,628.119446 
	C481.145996,621.627930 483.449097,615.020081 486.027527,608.095947 
z"/>
<path fill="#000000" opacity="1.000000" stroke="none" 
	d="
M259.678284,691.645142 
	C268.099792,687.530762 276.342316,683.958740 284.855591,681.026550 
	C303.405548,674.637329 318.760071,663.421692 332.123657,649.345581 
	C357.946259,622.146057 378.344238,591.422058 392.925171,556.754333 
	C407.014099,523.256409 418.507477,488.931458 427.011353,453.638214 
	C430.828430,437.796387 432.701416,421.575317 433.681580,405.283844 
	C433.985016,400.240082 435.082489,395.395813 437.695740,391.000549 
	C438.436127,389.755341 439.001648,388.046570 440.845978,388.251892 
	C442.512421,388.437439 443.199921,389.985748 443.897919,391.302094 
	C445.358307,394.056091 445.218536,397.064301 445.320953,400.073853 
	C446.532379,435.662689 438.246246,469.699097 429.002136,503.673615 
	C421.544678,531.081665 412.654144,557.967041 399.112213,582.919006 
	C384.909424,609.088745 369.761993,634.805359 351.219208,658.250916 
	C339.438171,673.146851 323.963165,682.959229 306.169189,689.324585 
	C285.125824,696.852417 264.594177,705.728455 245.043045,716.447998 
	C231.000854,724.147034 216.770172,725.898132 201.280472,724.232178 
	C186.564087,722.649414 171.724792,722.222717 156.944351,721.217041 
	C148.978241,720.674927 141.018448,720.027954 133.063614,719.338257 
	C130.215302,719.091309 127.492027,718.393616 125.792831,715.302002 
	C128.826996,710.660522 133.787857,710.379272 138.481964,709.768127 
	C160.031433,706.962769 181.714661,707.020874 203.323044,708.084900 
	C220.077377,708.909912 235.365585,705.694031 249.544098,696.783508 
	C252.632416,694.842651 256.063965,693.447937 259.678284,691.645142 
z"/>
</svg>